<?xml version="1.0" encoding="UTF-8"?>
<svg width="184px" height="184px" viewBox="0 0 184 184" version="1.1" xmlns="http://www.w3.org/2000/svg" xmlns:xlink="http://www.w3.org/1999/xlink">
    <!-- Generator: sketchtool 48.2 (47327) - http://www.bohemiancoding.com/sketch -->
    <title>A8FD6410-C4A7-4548-B121-53735AC49208</title>
    <desc>Created with sketchtool.</desc>
    <defs></defs>
    <g id="token-head-slice" stroke="none" stroke-width="1" fill="none" fill-rule="evenodd" transform="translate(-875.000000, -3910.000000)" stroke-dasharray="1,5">
        <g id="cheap" transform="translate(876.000000, 3911.000000)" stroke="#57E7FD">
            <g id="Group-Copy-3" transform="translate(91.000000, 91.000000) rotate(-180.000000) translate(-91.000000, -91.000000) ">
                <g id="Group-2">
                    <path d="M22.1707108,80.8190507 C21.6807835,84.1505559 21.4266338,87.5555501 21.4266338,91.0217853 C21.4266338,120.907346 40.2490257,146.398873 66.6836619,156.286217" id="Stroke-1"></path>
                    <path d="M155.685007,64.8964156 C158.952209,72.9652109 160.749629,81.7835949 160.749629,91.0217853 C160.749629,129.493321 129.559637,160.683314 91.0881009,160.683314 C89.737739,160.683314 88.3935012,160.643507 87.0615115,160.566956" id="Stroke-3"></path>
                    <path d="M28.1967239,61.0290831 C39.4038093,37.5676928 63.3551269,21.3602875 91.0880703,21.3602875 C112.853088,21.3602875 132.290951,31.3456169 145.062741,46.9834818" id="Stroke-5"></path>
                    <path d="M15.8444641,141.57015 C32.1222964,165.751121 59.7450062,181.658446 91.0881009,181.658446 C110.936278,181.658446 129.293239,175.280206 144.220709,164.458938" id="Stroke-7"></path>
                    <path d="M59.6991368,5.96744752 C69.4793092,2.35729622 80.0525513,0.385339111 91.0881622,0.385339111 C141.146477,0.385339111 181.7247,40.9635622 181.7247,91.0218772 C181.7247,113.800431 173.322142,134.616215 159.448321,150.535788" id="Stroke-9"></path>
                    <path d="M6.28785168,123.084552 C2.51541199,113.117595 0.451593521,102.311638 0.451593521,91.0218772 C0.451593521,59.243972 16.8029149,31.2874993 41.5534263,15.1107145" id="Stroke-11"></path>
                </g>
            </g>
        </g>
    </g>
</svg>