<?xml version="1.0" encoding="UTF-8"?>
<svg width="36px" height="36px" viewBox="0 0 36 36" version="1.1" xmlns="http://www.w3.org/2000/svg" xmlns:xlink="http://www.w3.org/1999/xlink">
    <!-- Generator: sketchtool 48.2 (47327) - http://www.bohemiancoding.com/sketch -->
    <title>F0810844-FAC7-4A9C-B492-C2F210D3E077</title>
    <desc>Created with sketchtool.</desc>
    <defs></defs>
    <g id="token-head-slice" stroke="none" stroke-width="1" fill="none" fill-rule="evenodd" transform="translate(-222.000000, -3979.000000)">
        <g id="deneum-icon" transform="translate(222.000000, 3979.000000)" stroke="#FD9801">
            <path d="M29,18 C29,24.075 24.075,29 18,29 C11.925,29 7,24.075 7,18 C7,11.925 11.925,7 18,7 C24.075,7 29,11.925 29,18 Z" id="Stroke-1"></path>
            <path d="M18,0 L18,4" id="Stroke-3"></path>
            <path d="M9,2.4111 L11,5.8761" id="Stroke-5"></path>
            <path d="M2.4116,9 L5.8756,11" id="Stroke-7"></path>
            <path d="M0,18 L4,18" id="Stroke-9"></path>
            <path d="M2.4116,27 L5.8756,25" id="Stroke-11"></path>
            <path d="M9,33.5889 L11,30.1239" id="Stroke-13"></path>
            <path d="M18,36 L18,32" id="Stroke-15"></path>
            <path d="M27,33.5889 L25,30.1239" id="Stroke-17"></path>
            <path d="M33.5884,27 L30.1244,25" id="Stroke-19"></path>
            <path d="M36,18 L32,18" id="Stroke-21"></path>
            <path d="M33.5884,9 L30.1244,11" id="Stroke-23"></path>
            <path d="M27,2.4111 L25,5.8761" id="Stroke-25"></path>
        </g>
    </g>
</svg>