<?xml version="1.0" encoding="UTF-8"?>
<svg width="1440px" height="3129px" viewBox="0 0 1440 3129" version="1.1" xmlns="http://www.w3.org/2000/svg" xmlns:xlink="http://www.w3.org/1999/xlink">
    <!-- Generator: sketchtool 48.2 (47327) - http://www.bohemiancoding.com/sketch -->
    <title>E4B3B5D0-8739-43D0-A35B-823A209AF1CD</title>
    <desc>Created with sketchtool.</desc>
    <defs>
        <linearGradient x1="50%" y1="0%" x2="50%" y2="100%" id="linearGradient-1">
            <stop stop-color="#1D1048" offset="0%"></stop>
            <stop stop-color="#1D1048" stop-opacity="0" offset="100%"></stop>
        </linearGradient>
        <linearGradient x1="50%" y1="0%" x2="50%" y2="74.4887589%" id="linearGradient-2">
            <stop stop-color="#1D0F48" offset="0%"></stop>
            <stop stop-color="#1D1048" stop-opacity="0" offset="100%"></stop>
        </linearGradient>
    </defs>
    <g id="token-head-slice" stroke="none" stroke-width="1" fill="none" fill-rule="evenodd" transform="translate(0.000000, -10395.000000)" opacity="0.5">
        <g id="dna-bg" transform="translate(0.000000, 10395.000000)">
            <g id="Page-1" transform="translate(58.000000, 3.480469)" stroke="#2A1A5F">
                <path d="M159.132335,0.528513239 C159.132335,237.921525 1164.92922,237.921525 1164.92922,475.314538 C1164.92922,712.70755 159.132335,712.70755 159.132335,950.10909 C159.132335,1187.51063 1164.92922,1187.51063 1164.92922,1424.9207 C1164.92922,1662.35635 159.132335,1662.35635 159.132335,1899.78347 C159.132335,2137.19354 1164.92922,2137.19354 1164.92922,2374.60361 C1164.92922,2612.0222 159.132335,2612.0222 159.132335,2849.44932 C159.132335,3086.85939 1164.92922,3086.85939 1164.92922,3324.26946 C1164.92922,3561.68805 159.132335,3561.68805 159.132335,3799.10665 C159.132335,4036.53377 1164.92922,4036.53377 1164.92922,4273.95237 C1164.92922,4511.38802 159.132335,4511.38802 159.132335,4748.82367 C159.132335,4986.25932 1164.92922,4986.25932 1164.92922,5223.69497 C1164.92922,5461.10504 159.132335,5461.10504 159.132335,5698.50658 C159.132335,5935.91664 1164.92922,5935.91664 1164.92922,6173.32671 C1164.92922,6410.76236 159.132335,6410.76236 159.132335,6648.19801 C159.132335,6885.64219 1164.92922,6885.64219 1164.92922,7123.08637 C1164.92922,7360.53908 159.132335,7360.53908 159.132335,7597.99178 C159.132335,7835.43596 1164.92922,7835.43596 1164.92922,8072.88014 C1164.92922,8310.35843 159.132335,8310.35843 159.132335,8547.83672 C159.132335,8785.315 1164.92922,8785.315 1164.92922,9022.79329" id="Stroke-1"></path>
                <path d="M288.56298,0.528513239 C288.56298,246.261577 1035.49119,246.261577 1035.49119,491.986114 C1035.49119,737.727706 288.56298,737.727706 288.56298,983.469298 C288.56298,1229.21089 1035.49119,1229.21089 1035.49119,1474.96101 C1035.49119,1720.72818 288.56298,1720.72818 288.56298,1966.50389 C288.56298,2212.25401 1035.49119,2212.25401 1035.49119,2458.00413 C1035.49119,2703.76277 288.56298,2703.76277 288.56298,2949.52142 C288.56298,3195.28007 1035.49119,3195.28007 1035.49119,3441.03019 C1035.49119,3686.78883 288.56298,3686.78883 288.56298,3932.54748 C288.56298,4178.31466 1035.49119,4178.31466 1035.49119,4424.0733 C1035.49119,4669.84901 288.56298,4669.84901 288.56298,4915.62471 C288.56298,5161.40894 1035.49119,5161.40894 1035.49119,5407.18464 C1035.49119,5652.92623 288.56298,5652.92623 288.56298,5898.66782 C288.56298,6144.41794 1035.49119,6144.41794 1035.49119,6390.16806 C1035.49119,6635.95229 288.56298,6635.95229 288.56298,6881.728 C288.56298,7127.51223 1035.49119,7127.51223 1035.49119,7373.29646 C1035.49119,7619.08921 288.56298,7619.08921 288.56298,7864.88197 C288.56298,8110.6662 1035.49119,8110.6662 1035.49119,8356.45896 C1035.49119,8602.2773 288.56298,8602.2773 288.56298,8848.09564 C288.56298,9093.91398 1035.49119,9093.91398 1035.49119,9339.74085" id="Stroke-3"></path>
                <path d="M417.971477,0.528513239 C417.971477,254.593102 906.104845,254.593102 906.104845,508.666218 C906.104845,762.747862 417.971477,762.747862 417.971477,1016.82098 C417.971477,1270.91115 906.104845,1270.91115 906.104845,1525.00132 C906.104845,1779.10855 417.971477,1779.10855 417.971477,2033.2243 C417.971477,2287.31447 906.104845,2287.31447 906.104845,2541.40464 C906.104845,2795.50334 417.971477,2795.50334 417.971477,3049.60204 C417.971477,3303.70074 906.104845,3303.70074 906.104845,3557.79091 C906.104845,3811.88961 417.971477,3811.88961 417.971477,4065.98831 C417.971477,4320.09554 906.104845,4320.09554 906.104845,4574.19424 C906.104845,4828.30999 417.971477,4828.30999 417.971477,5082.43427 C417.971477,5336.55003 906.104845,5336.55003 906.104845,5590.67431 C906.104845,5844.75595 417.971477,5844.75595 417.971477,6098.8376 C417.971477,6352.92777 906.104845,6352.92777 906.104845,6607.01794 C906.104845,6861.1337 417.971477,6861.1337 417.971477,7115.25798 C417.971477,7369.38226 906.104845,7369.38226 906.104845,7623.50654 C906.104845,7877.63935 417.971477,7877.63935 417.971477,8131.78069 C417.971477,8385.90497 906.104845,8385.90497 906.104845,8640.02925 C906.104845,8894.19617 417.971477,8894.19617 417.971477,9148.35457 C417.971477,9402.52149 906.104845,9402.51296 906.104845,9656.67988" id="Stroke-5"></path>
                <path d="M547.402121,0.528513239 C547.402121,262.933154 776.666818,262.933154 776.666818,525.346322 C776.666818,787.75949 547.402121,787.75949 547.402121,1050.18119 C547.402121,1312.61141 776.666818,1312.61141 776.666818,1575.0331 C776.666818,1837.48891 547.402121,1837.48891 547.402121,2099.93619 C547.402121,2362.36641 776.666818,2362.36641 776.666818,2624.79664 C776.666818,2887.24392 547.402121,2887.24392 547.402121,3149.69119 C547.402121,3412.12142 776.666818,3412.12142 776.666818,3674.55164 C776.666818,3936.99039 547.402121,3936.99039 547.402121,4199.42914 C547.402121,4461.87642 776.666818,4461.87642 776.666818,4724.31517 C776.666818,4986.77098 547.402121,4986.77098 547.402121,5249.23531 C547.402121,5511.69112 776.666818,5511.69112 776.666818,5774.15545 C776.666818,6036.57715 547.402121,6036.57715 547.402121,6298.99884 C547.402121,6561.42907 776.666818,6561.42907 776.666818,6823.85929 C776.666818,7086.32363 547.402121,7086.32363 547.402121,7348.77943 C547.402121,7611.25229 776.666818,7611.25229 776.666818,7873.71663 C776.666818,8136.18949 547.402121,8136.18949 547.402121,8398.66235 C547.402121,8661.13521 776.666818,8661.13521 776.666818,8923.60807 C776.666818,9186.11505 547.402121,9186.11505 547.402121,9448.62202 C547.402121,9711.12046 776.666818,9711.12046 776.666818,9973.62744" id="Stroke-7"></path>
                <path d="M676.829075,0.528513239 C676.829075,271.281733 647.262013,271.281733 647.262013,542.026426 C647.262013,812.788173 676.829075,812.788173 676.829075,1083.54139 C676.829075,1354.30314 647.262013,1354.30314 647.262013,1625.07342 C647.262013,1895.86927 676.829075,1895.86927 676.829075,2166.66513 C676.829075,2437.42688 647.262013,2437.42688 647.262013,2708.19716 C647.262013,2978.98449 676.829075,2978.98449 676.829075,3249.76329 C676.829075,3520.54209 647.262013,3520.54209 647.262013,3791.31237 C647.262013,4062.09117 676.829075,4062.09117 676.829075,4332.86997 C676.829075,4603.6573 647.262013,4603.6573 647.262013,4874.43611 C647.262013,5145.24049 676.829075,5145.24049 676.829075,5416.03635 C676.829075,5686.84074 647.262013,5686.84074 647.262013,5957.64512 C647.262013,6228.40687 676.829075,6228.40687 676.829075,6499.16862 C676.829075,6769.93889 647.262013,6769.93889 647.262013,7040.70917 C647.262013,7311.51356 676.829075,7311.51356 676.829075,7582.30941 C676.829075,7853.1138 647.262013,7853.1138 647.262013,8123.92671 C647.262013,8394.74816 676.829075,8394.74816 676.829075,8665.56107 C676.829075,8936.37398 647.262013,8936.37398 647.262013,9207.1869 C647.262013,9478.03392 676.829075,9478.03392 676.829075,9748.88094 C676.829075,10019.7194 647.262013,10019.7194 647.262013,10290.575" id="Stroke-9"></path>
                <path d="M806.241263,0.528513239 C806.241263,279.621785 517.842442,279.621785 517.842442,558.706529 C517.842442,837.799801 806.241263,837.799801 806.241263,1116.9016 C806.241263,1396.0034 517.842442,1396.0034 517.842442,1675.11373 C517.842442,1954.24964 806.241263,1954.24964 806.241263,2233.37702 C806.241263,2512.48735 517.842442,2512.48735 517.842442,2791.59768 C517.842442,3070.72506 806.241263,3070.72506 806.241263,3349.84391 C806.241263,3628.96277 517.842442,3628.96277 517.842442,3908.0731 C517.842442,4187.19195 806.241263,4187.19195 806.241263,4466.31081 C806.241263,4745.43819 517.842442,4745.43819 517.842442,5024.55704 C517.842442,5303.70148 806.241263,5303.70148 806.241263,5582.83739 C806.241263,5861.98183 517.842442,5861.98183 517.842442,6141.12627 C517.842442,6420.23659 806.241263,6420.23659 806.241263,6699.33839 C806.241263,6978.44019 517.842442,6978.44019 517.842442,7257.55052 C517.842442,7536.69496 806.241263,7536.69496 806.241263,7815.8394 C806.241263,8094.98383 517.842442,8094.98383 517.842442,8374.1368 C517.842442,8653.28977 806.241263,8653.28977 806.241263,8932.45126 C806.241263,9211.60422 517.842442,9211.60422 517.842442,9490.75719 C517.842442,9769.94427 806.241263,9769.94427 806.241263,10049.1313 C806.241263,10328.3269 517.842442,10328.3269 517.842442,10607.514" id="Stroke-11"></path>
                <path d="M935.668216,0.528513239 C935.668216,287.961837 388.400723,287.961837 388.400723,575.386633 C388.400723,862.819957 935.668216,862.819957 935.668216,1150.25328 C935.668216,1437.70366 388.400723,1437.70366 388.400723,1725.14551 C388.400723,2012.62147 935.668216,2012.62147 935.668216,2300.09744 C935.668216,2587.54782 388.400723,2587.54782 388.400723,2874.99819 C388.400723,3162.46563 935.668216,3162.46563 935.668216,3449.92454 C935.668216,3737.38344 388.400723,3737.38344 388.400723,4024.83382 C388.400723,4312.29273 935.668216,4312.29273 935.668216,4599.75164 C935.668216,4887.21907 388.400723,4887.21907 388.400723,5174.67798 C388.400723,5462.16247 935.668216,5462.16247 935.668216,5749.64696 C935.668216,6037.13145 388.400723,6037.13145 388.400723,6324.61594 C388.400723,6612.05779 935.668216,6612.05779 935.668216,6899.49964 C935.668216,7186.95002 388.400723,7186.95002 388.400723,7474.4004 C388.400723,7761.88489 935.668216,7761.88489 935.668216,8049.36938 C935.668216,8336.85387 388.400723,8336.85387 388.400723,8624.33836 C388.400723,8911.84843 935.668216,8911.84843 935.668216,9199.34998 C935.668216,9486.84299 388.400723,9486.84299 388.400723,9774.33601 C388.400723,10061.8631 935.668216,10061.8631 935.668216,10349.3903 C935.668216,10636.9259 388.400723,10636.9259 388.400723,10924.4616" id="Stroke-13"></path>
                <path d="M1065.0804,0.528513239 C1065.0804,296.293361 258.981153,296.293361 258.981153,592.066737 C258.981153,887.840113 1065.0804,887.840113 1065.0804,1183.61349 C1065.0804,1479.39539 258.981153,1479.39539 258.981153,1775.18582 C258.981153,2071.00184 1065.0804,2071.00184 1065.0804,2366.81785 C1065.0804,2662.60828 258.981153,2662.60828 258.981153,2958.39871 C258.981153,3254.19767 1065.0804,3254.19767 1065.0804,3550.00516 C1065.0804,3845.79559 258.981153,3845.79559 258.981153,4141.59455 C258.981153,4437.39351 1065.0804,4437.39351 1065.0804,4733.19247 C1065.0804,5028.99995 258.981153,5028.99995 258.981153,5324.79891 C258.981153,5620.62345 1065.0804,5620.62345 1065.0804,5916.448 C1065.0804,6212.27254 258.981153,6212.27254 258.981153,6508.09708 C258.981153,6803.87898 1065.0804,6803.87898 1065.0804,7099.66089 C1065.0804,7395.45132 258.981153,7395.45132 258.981153,7691.24175 C258.981153,7987.06629 1065.0804,7987.06629 1065.0804,8282.89083 C1065.0804,8578.7239 258.981153,8578.7239 258.981153,8874.54844 C258.981153,9170.39857 1065.0804,9170.39857 1065.0804,9466.24017 C1065.0804,9762.07324 258.981153,9762.07324 258.981153,10057.9063 C258.981153,10353.782 1065.0804,10353.782 1065.0804,10649.6492 C1065.0804,10945.5334 258.981153,10945.5334 258.981153,11241.4091" id="Stroke-15"></path>
                <path d="M1194.50736,0.528513239 C1194.50736,304.633413 129.539434,304.633413 129.539434,608.738313 C129.539434,912.851741 1194.50736,912.851741 1194.50736,1216.96517 C1194.50736,1521.09565 129.539434,1521.09565 129.539434,1825.22614 C129.539434,2129.3822 1194.50736,2129.3822 1194.50736,2433.53827 C1194.50736,2737.66875 129.539434,2737.66875 129.539434,3041.79923 C129.539434,3345.93824 1194.50736,3345.93824 1194.50736,3650.08578 C1194.50736,3954.21627 129.539434,3954.21627 129.539434,4258.35528 C129.539434,4562.49429 1194.50736,4562.49429 1194.50736,4866.6333 C1194.50736,5170.78084 129.539434,5170.78084 129.539434,5474.92838 C129.539434,5779.08444 1194.50736,5779.08444 1194.50736,6083.24903 C1194.50736,6387.41363 129.539434,6387.41363 129.539434,6691.58675 C129.539434,6995.70871 1194.50736,6995.70871 1194.50736,7299.83066 C1194.50736,7603.96114 129.539434,7603.96114 129.539434,7908.09163 C129.539434,8212.25622 1194.50736,8212.25622 1194.50736,8516.42081 C1194.50736,8820.59394 129.539434,8820.59394 129.539434,9124.76706 C129.539434,9428.94871 1194.50736,9428.94871 1194.50736,9733.13036 C1194.50736,10037.312 129.539434,10037.312 129.539434,10341.4851 C129.539434,10645.7009 1194.50736,10645.7009 1194.50736,10949.9166 C1194.50736,11254.1324 129.539434,11254.1324 129.539434,11558.3482" id="Stroke-17"></path>
                <g id="Group-21" transform="translate(0.000000, 0.263830)">
                    <path d="M1323.91955,0.264683003 C1323.91955,312.709635 0.156776168,312.709635 0.156776168,625.154587 C0.156776168,937.608067 1323.91955,937.608067 1323.91955,1250.06155 C1323.91955,1562.53208 0.156776168,1562.53208 0.156776168,1874.99409 C0.156776168,2187.49873 1323.91955,2187.49873 1323.91955,2499.99485 C1323.91955,2812.45686 0.156776168,2812.45686 0.156776168,3124.93592 C0.156776168,3437.41499 1323.91955,3437.41499 1323.91955,3749.90258 C1323.91955,4062.38164 0.156776168,4062.38164 0.156776168,4374.85217 C0.156776168,4687.33124 1323.91955,4687.33124 1323.91955,4999.8103 C1323.91955,5312.29789 0.156776168,5312.29789 0.156776168,5624.78548 C0.156776168,5937.2816 1323.91955,5937.2816 1323.91955,6249.78624 C1323.91955,6562.29942 0.156776168,6562.29942 0.156776168,6874.80406 C0.156776168,7187.26607 1323.91955,7187.26607 1323.91955,7499.72808 C1323.91955,7812.19861 0.156776168,7812.19861 0.156776168,8124.66915 C0.156776168,8437.17379 1323.91955,8437.17379 1323.91955,8749.67844 C1323.91955,9062.19161 0.156776168,9062.19161 0.156776168,9374.70479 C0.156776168,9687.23501 1323.91955,9687.23501 1323.91955,9999.76524 C1323.91955,10312.2784 0.156776168,10312.2784 0.156776168,10624.8001 C0.156776168,10937.3559 1323.91955,10937.3559 1323.91955,11249.9117 C1323.91955,11562.4761 0.156776168,11562.4761 0.156776168,11875.0319" id="Stroke-19"></path>
                </g>
            </g>
            <rect id="Rectangle-6" fill="url(#linearGradient-1)" x="0" y="0.84203125" width="1440" height="496.28"></rect>
            <g id="Group-17" transform="translate(0.000000, 1166.000000)" fill="url(#linearGradient-2)">
                <rect id="Rectangle-6-Copy" transform="translate(720.000000, 248.271094) scale(-1, -1) translate(-720.000000, -248.271094) " x="0" y="0.13109375" width="1440" height="496.28"></rect>
            </g>
        </g>
    </g>
</svg>