<?xml version="1.0" encoding="UTF-8"?>
<svg width="1021px" height="537px" viewBox="0 0 1021 537" version="1.1" xmlns="http://www.w3.org/2000/svg" xmlns:xlink="http://www.w3.org/1999/xlink">
    <!-- Generator: sketchtool 48.2 (47327) - http://www.bohemiancoding.com/sketch -->
    <title>8F913010-D074-4B52-BA49-EC11FAC25369</title>
    <desc>Created with sketchtool.</desc>
    <defs></defs>
    <g id="token-head-slice" stroke="none" stroke-width="1" fill="none" fill-rule="evenodd" transform="translate(-210.000000, -5223.000000)">
        <g id="graph-market" transform="translate(208.000000, 5223.000000)">
            <path d="M215,63 C307.120294,64.8605017 380.886332,139.664898 381,232 C381.113412,325.112367 305.548202,400.88632 212,401 C118.879775,401.113424 43.1136868,325.54037 43,232 C42.9652114,205.402623 49.16624,180.05438 60,158" id="Stroke-1" stroke="#492DA3" stroke-dasharray="1,5"></path>
            <path d="M1023,513 L0,513" id="Path-2-Copy-6" stroke="#492DA3" stroke-dasharray="1,5"></path>
            <path d="M999,14 L999,537" id="Path-2-Copy-5" stroke="#492DA3" stroke-dasharray="1,5"></path>
            <polyline id="Page-1" stroke="#FD9801" points="41 512 160.625 507.524664 228.861796 502.303438 265.086268 501.557549 302.153169 498.573991 346.801937 491.115097 354.383803 491.115097 373.759683 483.656203 379.65669 484.402093 408.299296 477.689088 416.723592 480.672646 435.257042 475.45142 445.366197 482.164425 451.263204 476.197309 457.160211 480.672646 465.584507 473.959641 485.802817 472.467862 500.966549 465.008969 517.815141 477.689088 538.033451 471.721973 548.142606 463.51719 554.882042 469.484305 567.518486 457.550075 579.3125 455.312407 587.736796 451.58296 595.318662 459.787743 603.742958 454.566517 610.482394 445.615845 617.221831 447.107623 628.173415 435.173393 645.864437 428.460389 657.658451 412.796712 671.137324 403.846039 682.931338 388.928251 689.670775 385.198804 705.676937 359.092676 710.731514 362.076233 722.525528 351.633782 741.901408 314.339312 758.75 286.741405 769.701585 284.503737 779.810739 262.127055 794.132042 245.717489 806.768486 250.938714 813.507923 250.192825 818.5625 243.479821 822.774648 234.529148 833.726232 224.832586 845.520246 204.693572 852.259683 196.488789 864.896127 192.013453 876.690141 189.029895 884.272007 182.316891 894.381162 165.907324 906.175176 162.923767 912.072183 151.735426 918.81162 145.768311 925.551056 139.801196 942.399648 89.0807175 957.56338 59.9910314 962.617958 58.4992526 966.830106 60.7369208 975.254401 38.3602392 981.993838 28.6636771 998 13"></polyline>
            <g id="Group-11" transform="translate(13.000000, 499.000000)">
                <circle id="Oval-10" fill="#1D1048" cx="13" cy="13" r="13"></circle>
                <circle id="Oval-2" fill="#FFFFFF" cx="13.5" cy="13.5" r="3.5"></circle>
            </g>
            <g id="Group-10" transform="translate(986.000000, 0.000000)">
                <circle id="Oval-10-Copy" fill="#1D1048" cx="13" cy="13" r="13"></circle>
                <circle id="Oval-2-Copy" fill="#FFFFFF" cx="13.5" cy="13.5" r="3.5"></circle>
            </g>
            <g id="Group-10-Copy-4" transform="translate(986.000000, 500.000000)">
                <circle id="Oval-10-Copy" fill="#1D1048" cx="13" cy="13" r="13"></circle>
                <circle id="Oval-2-Copy" fill="#FFFFFF" cx="13.5" cy="13.5" r="3.5"></circle>
            </g>
            <g id="Page-1" transform="translate(78.000000, 98.000000)" stroke-linecap="round">
                <path d="M1.48699341,151.301447 C5.06243286,179.878412 17.6295715,205.658746 36.2678772,225.730768" id="Stroke-1" stroke="#57E7FD"></path>
                <path d="M14.9829498,73.7032593 C23.9224335,56.1712158 36.6046234,40.8614319 51.9675079,28.8341492" id="Stroke-3" stroke="#FD9801"></path>
                <path d="M96.3865906,5.92089233 C107.661615,2.57555542 119.564111,0.681634521 131.866632,0.442681885" id="Stroke-5" stroke="#FD9801"></path>
                <path d="M40.5686707,230.155463 C64.7648376,253.91886 97.9270386,268.573737 134.521307,268.573737 C172.913031,268.573737 207.534613,252.440009 231.978583,226.580023" id="Stroke-7" stroke="#57E7FD"></path>
                <path d="M138.061523,0.460028076 C210.473022,2.33624878 268.600464,61.6319031 268.600464,134.494757 C268.600464,167.930426 256.360779,198.507513 236.120605,221.995673" id="Stroke-9" stroke="#57E7FD"></path>
                <path d="M56.9240936,25.1434814 C67.1459564,17.8687012 78.438681,12.0002014 90.5190643,7.80614014" id="Stroke-11" stroke="#FD9801"></path>
                <path d="M0.858636475,145.150452 C0.584283447,141.636963 0.442681885,138.079224 0.442681885,134.494934 C0.442681885,114.812317 4.68187866,96.1209106 12.3018127,79.2791748" id="Stroke-13" stroke="#57E7FD"></path>
            </g>
            <circle id="Oval-18" stroke="#492DA3" stroke-dasharray="1,5" cx="213" cy="232" r="76"></circle>
        </g>
    </g>
</svg>