<?xml version="1.0" encoding="UTF-8"?>
<svg width="48px" height="61px" viewBox="0 0 48 61" version="1.1" xmlns="http://www.w3.org/2000/svg" xmlns:xlink="http://www.w3.org/1999/xlink">
    <!-- Generator: sketchtool 48.2 (47327) - http://www.bohemiancoding.com/sketch -->
    <title>C52DE624-0656-4AFE-A809-1EAD2B4CAE23</title>
    <desc>Created with sketchtool.</desc>
    <defs></defs>
    <g id="token-head-slice" stroke="none" stroke-width="1" fill="none" fill-rule="evenodd" transform="translate(-1112.000000, -3097.000000)">
        <g id="noise-icon" transform="translate(1112.000000, 3098.000000)">
            <polyline id="Stroke-1" stroke="#000000" points="15 0 1 11.795931 15 23.5952529 1 35.395931 15 47.1979655 1 59"></polyline>
            <polyline id="Stroke-3" stroke="#FD9801" points="14 0 0 11.795931 14 23.5952529 0 35.395931 14 47.1979655 0 59"></polyline>
            <polyline id="Stroke-5" stroke="#000000" points="31 0 17 11.795931 31 23.5952529 17 35.395931 31 47.1979655 17 59"></polyline>
            <polyline id="Stroke-7" stroke="#57E7FD" points="31 0 17 11.795931 31 23.5952529 17 35.395931 31 47.1979655 17 59"></polyline>
            <polyline id="Stroke-9" stroke="#000000" points="47 0 33 11.795931 47 23.5952529 33 35.395931 47 47.1979655 33 59"></polyline>
            <polyline id="Stroke-11" stroke="#FD9801" points="48 0 34 11.795931 48 23.5952529 34 35.395931 48 47.1979655 34 59"></polyline>
        </g>
    </g>
</svg>