<?xml version="1.0" encoding="UTF-8"?>
<svg width="34px" height="31px" viewBox="0 0 34 31" version="1.1" xmlns="http://www.w3.org/2000/svg" xmlns:xlink="http://www.w3.org/1999/xlink">
    <!-- Generator: sketchtool 48.2 (47327) - http://www.bohemiancoding.com/sketch -->
    <title>11BDBFD0-D784-47C1-BFCC-A3A7A426A2EC</title>
    <desc>Created with sketchtool.</desc>
    <defs></defs>
    <g id="token-head-slice" stroke="none" stroke-width="1" fill="none" fill-rule="evenodd" transform="translate(-223.000000, -3900.000000)">
        <g id="nuclear-icon" transform="translate(223.000000, 3900.000000)" stroke="#FD9801">
            <path d="M22.6445,12.3467 C26.7685,20.3697 27.5095,28.2107 24.3005,29.8607 C21.0915,31.5097 15.1475,26.3437 11.0235,18.3207 C6.8995,10.2977 6.1575,2.4557 9.3665,0.8067 C12.5755,-0.8423 18.5205,4.3247 22.6445,12.3467 Z" id="Stroke-1"></path>
            <path d="M11.0234,12.3467 C6.8994,20.3697 6.1574,28.2107 9.3664,29.8607 C12.5754,31.5097 18.5204,26.3437 22.6444,18.3207 C26.7684,10.2977 27.5094,2.4557 24.3004,0.8067 C21.0914,-0.8423 15.1474,4.3247 11.0234,12.3467 Z" id="Stroke-3"></path>
            <path d="M16.834,8.7998 C7.813,8.7998 0.5,11.7258 0.5,15.3338 C0.5,18.9428 7.813,21.8668 16.834,21.8668 C25.855,21.8668 33.167,18.9428 33.167,15.3338 C33.167,11.7258 25.855,8.7998 16.834,8.7998 Z" id="Stroke-5"></path>
            <path d="M18.791,15.334 C18.791,16.414 17.915,17.291 16.834,17.291 C15.753,17.291 14.877,16.414 14.877,15.334 C14.877,14.253 15.753,13.377 16.834,13.377 C17.915,13.377 18.791,14.253 18.791,15.334 Z" id="Stroke-7"></path>
        </g>
    </g>
</svg>