<?xml version="1.0" encoding="UTF-8"?>
<svg width="47px" height="47px" viewBox="0 0 47 47" version="1.1" xmlns="http://www.w3.org/2000/svg" xmlns:xlink="http://www.w3.org/1999/xlink">
    <!-- Generator: sketchtool 48.2 (47327) - http://www.bohemiancoding.com/sketch -->
    <title>E16FA7FA-4387-47B6-908F-DFDEB83C1966</title>
    <desc>Created with sketchtool.</desc>
    <defs></defs>
    <g id="token-head-slice" stroke="none" stroke-width="1" fill="none" fill-rule="evenodd" transform="translate(-1031.000000, -6384.000000)">
        <g id="patents-icon" transform="translate(1031.000000, 6384.000000)">
            <path d="M34.6254,42.9521 C23.7454,49.2331 9.8334,45.5061 3.5514,34.6261 C-2.7296,23.7451 0.9974,9.8331 11.8774,3.5521 C22.7574,-2.7309 36.6694,0.9981 42.9524,11.8781 C49.2334,22.7581 45.5054,36.6701 34.6254,42.9521 Z" id="Stroke-1" stroke="#57E7FD"></path>
            <path d="M23.7333,11.83 L26.7923,18.027 C26.8703,18.186 27.0223,18.296 27.1963,18.321 L34.0363,19.315 C34.4773,19.38 34.6523,19.921 34.3343,20.231 L29.3843,25.056 C29.2583,25.18 29.2003,25.357 29.2303,25.531 L30.3993,32.344 C30.4743,32.782 30.0133,33.117 29.6193,32.91 L23.5023,29.693 C23.3453,29.611 23.1583,29.611 23.0013,29.693 L16.8843,32.91 C16.4903,33.117 16.0293,32.782 16.1043,32.344 L17.2733,25.531 C17.3023,25.357 17.2453,25.18 17.1183,25.056 L12.1693,20.231 C11.8503,19.921 12.0263,19.38 12.4673,19.315 L19.3063,18.321 C19.4813,18.296 19.6323,18.186 19.7113,18.027 L22.7703,11.83 C22.9663,11.431 23.5363,11.431 23.7333,11.83 Z" id="Stroke-3" stroke="#FD9801"></path>
        </g>
    </g>
</svg>