<?xml version="1.0" encoding="UTF-8"?>
<svg width="43px" height="43px" viewBox="0 0 43 43" version="1.1" xmlns="http://www.w3.org/2000/svg" xmlns:xlink="http://www.w3.org/1999/xlink">
    <!-- Generator: sketchtool 48.2 (47327) - http://www.bohemiancoding.com/sketch -->
    <title>7EBAA73B-3120-49B5-A607-6EA89AA12566</title>
    <desc>Created with sketchtool.</desc>
    <defs></defs>
    <g id="token-head-slice" stroke="none" stroke-width="1" fill="none" fill-rule="evenodd" transform="translate(-970.000000, -7714.000000)">
        <g id="price-icon" transform="translate(970.000000, 7714.000000)">
            <path d="M42.5,21.5 C42.5,33.098 33.098,42.5 21.5,42.5 C9.902,42.5 0.5,33.098 0.5,21.5 C0.5,9.902 9.902,0.5 21.5,0.5 C33.098,0.5 42.5,9.902 42.5,21.5 Z" id="Stroke-1" stroke="#57E7FD" stroke-dasharray="1,5"></path>
            <path d="M36.5,21.5 C36.5,29.784 29.784,36.5 21.5,36.5 C13.216,36.5 6.5,29.784 6.5,21.5 C6.5,13.216 13.216,6.5 21.5,6.5 C29.784,6.5 36.5,13.216 36.5,21.5 Z" id="Stroke-3" stroke="#57E7FD" stroke-dasharray="1,5"></path>
            <polyline id="Stroke-5" stroke="#FD9801" points="22.5 15.5 18.5 21.5 24.5 21.5 20.5 27.5"></polyline>
        </g>
    </g>
</svg>