<?xml version="1.0" encoding="UTF-8"?>
<svg width="41px" height="41px" viewBox="0 0 41 41" version="1.1" xmlns="http://www.w3.org/2000/svg" xmlns:xlink="http://www.w3.org/1999/xlink">
    <!-- Generator: sketchtool 48.2 (47327) - http://www.bohemiancoding.com/sketch -->
    <title>C374507C-361F-487A-8FB2-EB00495FC314</title>
    <desc>Created with sketchtool.</desc>
    <defs></defs>
    <g id="token-head-slice" stroke="none" stroke-width="1" fill="none" fill-rule="evenodd" transform="translate(-419.000000, -7717.000000)">
        <g id="pruchase-icon" transform="translate(419.000000, 7717.000000)">
            <polyline id="Stroke-1" stroke="#57E7FD" points="0 7.7298 5.398 7.7298 10.552 27.1168 34.847 27.1168 40 7.7298"></polyline>
            <path d="M16.8096,36.0736 C16.8096,38.1066 15.1626,39.7546 13.1286,39.7546 C11.0956,39.7546 9.4486,38.1066 9.4486,36.0736 C9.4486,34.0406 11.0956,32.3926 13.1286,32.3926 C15.1626,32.3926 16.8096,34.0406 16.8096,36.0736 Z" id="Stroke-3" stroke="#57E7FD"></path>
            <path d="M36.4414,36.0736 C36.4414,38.1066 34.7944,39.7546 32.7604,39.7546 C30.7274,39.7546 29.0804,38.1066 29.0804,36.0736 C29.0804,34.0406 30.7274,32.3926 32.7604,32.3926 C34.7944,32.3926 36.4414,34.0406 36.4414,36.0736 Z" id="Stroke-5" stroke="#57E7FD"></path>
            <polyline id="Stroke-7" stroke="#FD9801" points="15.3379 7.6078 23.0669 14.4788 30.7979 7.6078"></polyline>
            <path d="M23.0674,14.2328 L23.0674,-0.0002" id="Stroke-9" stroke="#FD9801"></path>
        </g>
    </g>
</svg>