<?xml version="1.0" encoding="UTF-8"?>
<svg width="778px" height="205px" viewBox="0 0 778 205" version="1.1" xmlns="http://www.w3.org/2000/svg" xmlns:xlink="http://www.w3.org/1999/xlink">
    <!-- Generator: sketchtool 48.2 (47327) - http://www.bohemiancoding.com/sketch -->
    <title>217AC499-17D0-415F-9DB7-8E7E3C5C20BE</title>
    <desc>Created with sketchtool.</desc>
    <defs></defs>
    <g id="token-head-slice" stroke="none" stroke-width="1" fill="none" fill-rule="evenodd" transform="translate(-336.000000, -2584.000000)">
        <g id="reaction-formular" transform="translate(328.000000, 2584.000000)">
            <path d="M32.522,204.318 L32.522,191.294 C32.522,190.839331 32.7493311,190.612 33.204,190.612 L38.506,190.612 C40.3540092,190.612 41.7069957,191.037329 42.565,191.888 C43.4230043,192.738671 43.852,194.095324 43.852,195.958 L43.852,199.654 C43.852,201.502009 43.4230043,202.854996 42.565,203.713 C41.7069957,204.571004 40.3540092,205 38.506,205 L33.204,205 C32.7493311,205 32.522,204.772669 32.522,204.318 Z M38.506,203.636 C39.4886716,203.636 40.2696638,203.507668 40.849,203.251 C41.4283362,202.994332 41.8463321,202.580003 42.103,202.008 C42.359668,201.435997 42.488,200.651338 42.488,199.654 L42.488,195.958 C42.488,194.960662 42.359668,194.176003 42.103,193.604 C41.8463321,193.031997 41.4283362,192.617668 40.849,192.361 C40.2696638,192.104332 39.4886716,191.976 38.506,191.976 L33.886,191.976 L33.886,203.636 L38.506,203.636 Z" id="D" fill="#FFFFFF"></path>
            <path d="M199.522,204.318 L199.522,191.294 C199.522,190.839331 199.749331,190.612 200.204,190.612 L205.506,190.612 C207.354009,190.612 208.706996,191.037329 209.565,191.888 C210.423004,192.738671 210.852,194.095324 210.852,195.958 L210.852,199.654 C210.852,201.502009 210.423004,202.854996 209.565,203.713 C208.706996,204.571004 207.354009,205 205.506,205 L200.204,205 C199.749331,205 199.522,204.772669 199.522,204.318 Z M205.506,203.636 C206.488672,203.636 207.269664,203.507668 207.849,203.251 C208.428336,202.994332 208.846332,202.580003 209.103,202.008 C209.359668,201.435997 209.488,200.651338 209.488,199.654 L209.488,195.958 C209.488,194.960662 209.359668,194.176003 209.103,193.604 C208.846332,193.031997 208.428336,192.617668 207.849,192.361 C207.269664,192.104332 206.488672,191.976 205.506,191.976 L200.886,191.976 L200.886,203.636 L205.506,203.636 Z" id="D-Copy" fill="#FFFFFF"></path>
            <path d="M430.824,14.318 C430.824,14.7726689 430.596669,15 430.142,15 L422.002,15 C421.547331,15 421.32,14.7726689 421.32,14.318 L421.32,1.294 C421.32,0.83933106 421.547331,0.612 422.002,0.612 L430.142,0.612 C430.596669,0.612 430.824,0.83933106 430.824,1.294 C430.824,1.74866894 430.596669,1.976 430.142,1.976 L422.684,1.976 L422.684,7.036 L427.546,7.036 C428.000669,7.036 428.228,7.26333106 428.228,7.718 C428.228,8.17266894 428.000669,8.4 427.546,8.4 L422.684,8.4 L422.684,13.636 L430.142,13.636 C430.596669,13.636 430.824,13.8633311 430.824,14.318 Z" id="E" fill="#FFFFFF"></path>
            <path d="M366.024,202.586 C366.024,202.754001 365.934001,202.903999 365.754,203.036 C365.67,203.096 365.562001,203.126 365.43,203.126 C365.261999,203.126 365.112001,203.036001 364.98,202.856 L362.1,198.176 L359.022,198.176 L359.022,202.442 C359.022,202.814002 358.836002,203 358.464,203 C358.091998,203 357.906,202.814002 357.906,202.442 L357.906,191.786 C357.906,191.413998 358.091998,191.228 358.464,191.228 L362.676,191.228 C363.720005,191.228 364.514997,191.497997 365.061,192.038 C365.607003,192.578003 365.88,193.375995 365.88,194.432 L365.88,194.972 C365.88,195.896005 365.667002,196.624997 365.241,197.159 C364.814998,197.693003 364.194004,198.013999 363.378,198.122 L365.934,202.262 C365.994,202.346 366.024,202.453999 366.024,202.586 Z M359.022,197.06 L362.676,197.06 C363.408004,197.06 363.938998,196.895002 364.269,196.565 C364.599002,196.234998 364.764,195.704004 364.764,194.972 L364.764,194.432 C364.764,193.699996 364.599002,193.169002 364.269,192.839 C363.938998,192.508998 363.408004,192.344 362.676,192.344 L359.022,192.344 L359.022,197.06 Z M369.57,199.094 L369.57,199.688 C369.57,200.516004 369.728998,201.088998 370.047,201.407 C370.365002,201.725002 370.943996,201.884 371.784,201.884 L373.26,201.884 C373.968004,201.884 374.486998,201.797001 374.817,201.623 C375.147002,201.448999 375.354,201.158002 375.438,200.75 C375.462,200.569999 375.519,200.435 375.609,200.345 C375.699,200.255 375.833999,200.21 376.014,200.21 C376.206001,200.21 376.35,200.260999 376.446,200.363 C376.542,200.465001 376.578,200.605999 376.554,200.786 C376.458,201.542004 376.140003,202.099998 375.6,202.46 C375.059997,202.820002 374.280005,203 373.26,203 L371.784,203 C370.643994,203 369.804003,202.733003 369.264,202.199 C368.723997,201.664997 368.454,200.828006 368.454,199.688 L368.454,197.636 C368.454,196.483994 368.723997,195.638003 369.264,195.098 C369.804003,194.557997 370.643994,194.294 371.784,194.306 L373.26,194.306 C374.400006,194.306 375.239997,194.575997 375.78,195.116 C376.320003,195.656003 376.59,196.495994 376.59,197.636 L376.59,198.536 C376.59,198.908002 376.404002,199.094 376.032,199.094 L369.57,199.094 Z M369.57,197.978 L375.474,197.978 L375.474,197.636 C375.474,196.795996 375.315002,196.217002 374.997,195.899 C374.678998,195.580998 374.100004,195.422 373.26,195.422 L371.784,195.422 C371.219997,195.41 370.779002,195.472999 370.461,195.611 C370.142998,195.749001 369.915001,195.976998 369.777,196.295 C369.638999,196.613002 369.57,197.059997 369.57,197.636 L369.57,197.978 Z M386.526,195.116 C387.066003,195.656003 387.336,196.495994 387.336,197.636 L387.336,202.442 C387.336,202.814002 387.150002,203 386.778,203 C386.405998,203 386.22,202.814002 386.22,202.442 L386.22,201.704 C385.607997,202.568004 384.606007,203 383.214,203 L382.206,203 C381.245995,203 380.541002,202.775002 380.091,202.325 C379.640998,201.874998 379.416,201.170005 379.416,200.21 C379.416,199.249995 379.643998,198.545002 380.1,198.095 C380.556002,197.644998 381.257995,197.42 382.206,197.42 L386.22,197.42 C386.196,196.663996 386.019002,196.142001 385.689,195.854 C385.358998,195.565999 384.798004,195.422 384.006,195.422 L382.962,195.422 C382.241996,195.422 381.714002,195.490999 381.378,195.629 C381.041998,195.767001 380.826,196.003998 380.73,196.34 C380.67,196.520001 380.598,196.649 380.514,196.727 C380.43,196.805 380.304001,196.844 380.136,196.844 C379.955999,196.844 379.812001,196.793001 379.704,196.691 C379.595999,196.588999 379.56,196.448001 379.596,196.268 C379.704001,195.595997 380.033997,195.101002 380.586,194.783 C381.138003,194.464998 381.929995,194.306 382.962,194.306 L384.006,194.306 C385.146006,194.306 385.985997,194.575997 386.526,195.116 Z M386.22,200.066 L386.22,198.536 L382.206,198.536 C381.557997,198.536 381.117001,198.652999 380.883,198.887 C380.648999,199.121001 380.532,199.561997 380.532,200.21 C380.532,200.858003 380.648999,201.298999 380.883,201.533 C381.117001,201.767001 381.557997,201.884 382.206,201.884 L383.214,201.884 C384.090004,201.884 384.770998,201.749001 385.257,201.479 C385.743002,201.208999 386.045999,200.798003 386.166,200.246 L386.22,200.066 Z M391.152,202.19 C390.611997,201.649997 390.342,200.810006 390.342,199.67 L390.342,197.618 C390.342,196.477994 390.611997,195.638003 391.152,195.098 C391.692003,194.557997 392.531994,194.294 393.672,194.306 L395.148,194.306 C396.036004,194.306 396.719998,194.455998 397.2,194.756 C397.680002,195.056002 397.968,195.523997 398.064,196.16 C398.1,196.340001 398.067001,196.480999 397.965,196.583 C397.862999,196.685001 397.716001,196.736 397.524,196.736 C397.355999,196.736 397.23,196.694 397.146,196.61 C397.062,196.526 396.996,196.394001 396.948,196.214 C396.864,195.925999 396.687001,195.722001 396.417,195.602 C396.146999,195.481999 395.724003,195.422 395.148,195.422 L393.672,195.422 C392.831996,195.41 392.253002,195.562998 391.935,195.881 C391.616998,196.199002 391.458,196.777996 391.458,197.618 L391.458,199.67 C391.458,200.510004 391.619998,201.088998 391.944,201.407 C392.268002,201.725002 392.843996,201.884 393.672,201.884 L395.148,201.884 C395.724003,201.884 396.146999,201.824001 396.417,201.704 C396.687001,201.583999 396.864,201.380001 396.948,201.092 C396.996,200.911999 397.065,200.78 397.155,200.696 C397.245,200.612 397.373999,200.57 397.542,200.57 C397.722001,200.57 397.862999,200.620999 397.965,200.723 C398.067001,200.825001 398.1,200.965999 398.064,201.146 C397.968,201.782003 397.680002,202.249999 397.2,202.55 C396.719998,202.850001 396.036004,203 395.148,203 L393.672,203 C392.531994,203 391.692003,202.730003 391.152,202.19 Z M405.048,202.442 C405.048,202.814002 404.862002,203 404.49,203 C403.361994,203 402.534003,202.739003 402.006,202.217 C401.477997,201.694997 401.214,200.870006 401.214,199.742 L401.214,195.422 L400.206,195.422 C399.833998,195.422 399.648,195.236002 399.648,194.864 C399.648,194.491998 399.833998,194.306 400.206,194.306 L401.214,194.306 L401.214,192.56 C401.214,192.187998 401.399998,192.002 401.772,192.002 C402.144002,192.002 402.33,192.187998 402.33,192.56 L402.33,194.306 L404.526,194.306 C404.898002,194.306 405.084,194.491998 405.084,194.864 C405.084,195.236002 404.898002,195.422 404.526,195.422 L402.33,195.422 L402.33,199.742 C402.33,200.294003 402.395999,200.722998 402.528,201.029 C402.660001,201.335002 402.881998,201.553999 403.194,201.686 C403.506002,201.818001 403.937997,201.884 404.49,201.884 C404.862002,201.884 405.048,202.069998 405.048,202.442 Z M407.694,202.442 L407.694,194.864 C407.694,194.491998 407.879998,194.306 408.252,194.306 C408.624002,194.306 408.81,194.491998 408.81,194.864 L408.81,202.442 C408.81,202.814002 408.624002,203 408.252,203 C407.879998,203 407.694,202.814002 407.694,202.442 Z M407.334,192.02 L407.334,191.552 C407.334,191.335999 407.390999,191.171001 407.505,191.057 C407.619001,190.942999 407.789999,190.886 408.018,190.886 L408.45,190.886 C408.666001,190.886 408.830999,190.945999 408.945,191.066 C409.059001,191.186001 409.116,191.347999 409.116,191.552 L409.116,192.02 C409.116,192.248001 409.059001,192.421999 408.945,192.542 C408.830999,192.662001 408.666001,192.722 408.45,192.722 L408.018,192.722 C407.561998,192.722 407.334,192.488002 407.334,192.02 Z M412.806,202.199 C412.265997,201.664997 411.996,200.828006 411.996,199.688 L411.996,197.636 C411.996,196.483994 412.265997,195.641003 412.806,195.107 C413.346003,194.572997 414.185994,194.306 415.326,194.306 L416.802,194.306 C417.942006,194.306 418.781997,194.575997 419.322,195.116 C419.862003,195.656003 420.132,196.495994 420.132,197.636 L420.132,199.67 C420.132,200.810006 419.862003,201.649997 419.322,202.19 C418.781997,202.730003 417.942006,203 416.802,203 L415.326,203 C414.185994,203 413.346003,202.733003 412.806,202.199 Z M416.802,201.884 C417.642004,201.884 418.220998,201.725002 418.539,201.407 C418.857002,201.088998 419.016,200.510004 419.016,199.67 L419.016,197.636 C419.016,196.795996 418.857002,196.217002 418.539,195.899 C418.220998,195.580998 417.642004,195.422 416.802,195.422 L415.326,195.422 C414.761997,195.422 414.321002,195.487999 414.003,195.62 C413.684998,195.752001 413.457001,195.976998 413.319,196.295 C413.180999,196.613002 413.112,197.059997 413.112,197.636 L413.112,199.688 C413.112,200.516004 413.270998,201.088998 413.589,201.407 C413.907002,201.725002 414.485996,201.884 415.326,201.884 L416.802,201.884 Z M430.464,195.116 C431.004003,195.656003 431.274,196.495994 431.274,197.636 L431.274,202.442 C431.274,202.814002 431.088002,203 430.716,203 C430.343998,203 430.158,202.814002 430.158,202.442 L430.158,197.636 C430.158,196.795996 429.996002,196.217002 429.672,195.899 C429.347998,195.580998 428.772004,195.422 427.944,195.422 L427.44,195.422 C426.515995,195.422 425.790003,195.556999 425.262,195.827 C424.733997,196.097001 424.458,196.501997 424.434,197.042 L424.434,202.442 C424.434,202.814002 424.248002,203 423.876,203 C423.503998,203 423.318,202.814002 423.318,202.442 L423.318,194.864 C423.318,194.491998 423.503998,194.306 423.876,194.306 C424.248002,194.306 424.434,194.491998 424.434,194.864 L424.434,195.512 C425.034003,194.707996 426.035993,194.306 427.44,194.306 L427.944,194.306 C429.084006,194.306 429.923997,194.575997 430.464,195.116 Z" id="Reaction" fill="#FFFFFF"></path>
            <path d="M769.797,191.294 L769.797,204.318 C769.797,204.772669 769.569669,205 769.115,205 C768.865665,205 768.631001,204.868001 768.411,204.604 L759.567,193.23 L759.567,204.318 C759.567,204.772669 759.339669,205 758.885,205 C758.430331,205 758.203,204.772669 758.203,204.318 L758.203,191.294 C758.203,190.839331 758.430331,190.612 758.885,190.612 C759.134335,190.612 759.361666,190.743999 759.567,191.008 L768.433,202.404 L768.433,191.294 C768.433,190.839331 768.660331,190.612 769.115,190.612 C769.569669,190.612 769.797,190.839331 769.797,191.294 Z" id="N" fill="#FFFFFF"></path>
            <path d="M599.537,204.802 C599.404999,204.669999 599.339,204.508668 599.339,204.318 L599.339,191.294 C599.339,191.088666 599.404999,190.923667 599.537,190.799 C599.669001,190.674333 599.830332,190.612 600.021,190.612 C600.226334,190.612 600.391333,190.674333 600.516,190.799 C600.640667,190.923667 600.703,191.088666 600.703,191.294 L600.703,197.014 L609.833,197.014 L609.833,191.294 C609.833,191.088666 609.898999,190.923667 610.031,190.799 C610.163001,190.674333 610.324332,190.612 610.515,190.612 C610.720334,190.612 610.885333,190.674333 611.01,190.799 C611.134667,190.923667 611.197,191.088666 611.197,191.294 L611.197,204.318 C611.197,204.508668 611.134667,204.669999 611.01,204.802 C610.885333,204.934001 610.720334,205 610.515,205 C610.324332,205 610.163001,204.934001 610.031,204.802 C609.898999,204.669999 609.833,204.508668 609.833,204.318 L609.833,198.378 L600.703,198.378 L600.703,204.318 C600.703,204.508668 600.640667,204.669999 600.516,204.802 C600.391333,204.934001 600.226334,205 600.021,205 C599.830332,205 599.669001,204.934001 599.537,204.802 Z M616.455,200.226 L616.455,200.952 C616.455,201.964005 616.649331,202.664331 617.038,203.053 C617.426669,203.441669 618.134328,203.636 619.161,203.636 L620.965,203.636 C621.830338,203.636 622.464665,203.529668 622.868,203.317 C623.271335,203.104332 623.524333,202.748669 623.627,202.25 C623.656333,202.029999 623.725999,201.865001 623.836,201.755 C623.946001,201.644999 624.110999,201.59 624.331,201.59 C624.565668,201.59 624.741666,201.652333 624.859,201.777 C624.976334,201.901667 625.020333,202.073999 624.991,202.294 C624.873666,203.218005 624.485003,203.899998 623.825,204.34 C623.164997,204.780002 622.211673,205 620.965,205 L619.161,205 C617.76766,205 616.741003,204.67367 616.081,204.021 C615.420997,203.36833 615.091,202.34534 615.091,200.952 L615.091,198.444 C615.091,197.035993 615.420997,196.002003 616.081,195.342 C616.741003,194.681997 617.76766,194.359333 619.161,194.374 L620.965,194.374 C622.35834,194.374 623.384997,194.703997 624.045,195.364 C624.705003,196.024003 625.035,197.05066 625.035,198.444 L625.035,199.544 C625.035,199.998669 624.807669,200.226 624.353,200.226 L616.455,200.226 Z M616.455,198.862 L623.671,198.862 L623.671,198.444 C623.671,197.417328 623.476669,196.709669 623.088,196.321 C622.699331,195.932331 621.991672,195.738 620.965,195.738 L619.161,195.738 C618.471663,195.723333 617.932669,195.800332 617.544,195.969 C617.155331,196.137668 616.876668,196.416331 616.708,196.805 C616.539332,197.193669 616.455,197.739996 616.455,198.444 L616.455,198.862 Z" id="He" fill="#FFFFFF"></path>
            <path d="M590.534,192.556 C590.153998,192.259999 589.924,191.808003 589.844,191.2 C589.828,191.031999 589.864,190.902 589.952,190.81 C590.04,190.718 590.167999,190.672 590.336,190.672 C590.640002,190.672 590.812,190.839998 590.852,191.176 C590.908,191.488002 591.031999,191.701999 591.224,191.818 C591.416001,191.934001 591.727998,191.992 592.16,191.992 L593.528,191.992 C593.880002,191.992 594.149999,191.952 594.338,191.872 C594.526001,191.792 594.66,191.658001 594.74,191.47 C594.82,191.281999 594.86,191.016002 594.86,190.672 C594.86,190.327998 594.82,190.062001 594.74,189.874 C594.66,189.685999 594.526001,189.552 594.338,189.472 C594.149999,189.392 593.880002,189.352 593.528,189.352 L592.604,189.352 C592.267998,189.352 592.1,189.184002 592.1,188.848 C592.1,188.687999 592.144,188.564 592.232,188.476 C592.32,188.388 592.443999,188.344 592.604,188.344 L593.984,188.344 C594.224001,188.344 594.397999,188.236001 594.506,188.02 C594.614001,187.803999 594.668,187.492002 594.668,187.084 C594.668,186.763998 594.632,186.518001 594.56,186.346 C594.488,186.173999 594.366001,186.052 594.194,185.98 C594.021999,185.908 593.776002,185.872 593.456,185.872 L592.292,185.872 C591.907998,185.872 591.628001,185.923999 591.452,186.028 C591.275999,186.132001 591.164,186.315999 591.116,186.58 C591.068,186.908002 590.892002,187.072 590.588,187.072 C590.419999,187.072 590.292,187.026 590.204,186.934 C590.116,186.842 590.084,186.712001 590.108,186.544 C590.260001,185.423994 590.987993,184.864 592.292,184.864 L593.456,184.864 C594.208004,184.864 594.765998,185.045998 595.13,185.41 C595.494002,185.774002 595.676,186.331996 595.676,187.084 C595.676,187.820004 595.468002,188.343998 595.052,188.656 C595.596003,189.008002 595.868,189.679995 595.868,190.672 C595.868,191.464004 595.678002,192.049998 595.298,192.43 C594.917998,192.810002 594.328004,193 593.528,193 L592.16,193 C591.455996,193 590.914002,192.852001 590.534,192.556 Z" id="3" fill="#FFFFFF"></path>
            <g id="Group-2" transform="translate(38.183766, 125.183766) rotate(-45.000000) translate(-38.183766, -125.183766) translate(17.183766, 92.183766)">
                <circle id="Oval-27" stroke="#FD9801" cx="21" cy="21" r="21"></circle>
                <circle id="Oval-27-Copy" stroke="#57E7FD" cx="21" cy="45" r="21"></circle>
            </g>
            <g id="Group-2-Copy" transform="translate(205.183766, 125.183766) rotate(-45.000000) translate(-205.183766, -125.183766) translate(184.183766, 92.183766)">
                <circle id="Oval-27" stroke="#FD9801" cx="21" cy="21" r="21"></circle>
                <circle id="Oval-27-Copy" stroke="#57E7FD" cx="21" cy="45" r="21"></circle>
            </g>
            <g id="Group-5" transform="translate(612.000000, 118.500000) rotate(-45.000000) translate(-612.000000, -118.500000) translate(572.000000, 73.000000)">
                <circle id="Oval-27" stroke="#FD9801" transform="translate(30.000000, 46.000000) rotate(-45.000000) translate(-30.000000, -46.000000) " cx="30" cy="46" r="21"></circle>
                <g id="Group-4" transform="translate(19.000000, 0.000000)" stroke="#57E7FD">
                    <circle id="Oval-27-Copy" transform="translate(29.698485, 60.698485) rotate(-45.000000) translate(-29.698485, -60.698485) " cx="29.6984848" cy="60.6984848" r="21"></circle>
                    <circle id="Oval-27-Copy-2" transform="translate(29.698485, 29.698485) rotate(-45.000000) translate(-29.698485, -29.698485) " cx="29.6984848" cy="29.6984848" r="21"></circle>
                </g>
            </g>
            <circle id="Oval-27-Copy" stroke="#57E7FD" cx="764" cy="125" r="21"></circle>
            <g id="Group-6" transform="translate(111.000000, 114.000000)" stroke="#FFFFFF">
                <path d="M11,0 L11,22" id="Path-5"></path>
                <path d="M0,11 L22,11" id="Path-5-Copy"></path>
            </g>
            <g id="Group-6-Copy" transform="translate(686.000000, 114.000000)" stroke="#FFFFFF">
                <path d="M11,0 L11,22" id="Path-5"></path>
                <path d="M0,11 L22,11" id="Path-5-Copy"></path>
            </g>
            <g id="Page-1" transform="translate(371.000000, 28.000000)" stroke="#FD9801">
                <path d="M2.91788322,37 C3.58633829,36.6501464 3.36004126,35.146209 2.81022735,33.2252635 C1.63535029,29.1228776 -1.01595013,23.1163349 0.411588669,22.3695111 C2.50703327,21.2717506 9.20476629,33.7078015 11.3007602,32.6105826 C13.396754,31.5133636 6.699021,19.0767711 8.79501487,17.9795521 C10.8899102,16.8828747 17.5876432,29.3189256 19.6825386,28.2222482 C21.7779832,27.1244877 15.0807994,14.6884368 17.176244,13.5912178 C19.2716886,12.4939988 25.9694216,24.9300498 28.0654155,23.8328308 C30.1608601,22.7356118 23.4631271,10.2995609 25.5591209,9.20234192 C27.6551148,8.10458138 34.3528478,20.5406323 36.4488417,19.4434133 C38.5459341,18.3451112 31.8482011,5.9090603 33.9452935,4.8107582 C36.0418366,3.71353923 42.7395696,16.1495902 44.8355635,15.0518296 C45.7594266,14.56875 44.9783723,11.887983 43.9935408,8.9450966 C43.7738349,8.28871487 44.0693393,7.5716774 44.6933039,7.25594262 L59,0" id="Stroke-1"></path>
                <path id="Stroke-1-decoration-1" d="M50.7249414,7.56064849 L59,0 L48.011005,2.20952251"></path>
            </g>
            <path d="M456,126 L489.881567,126" id="Path-6" stroke="#FFFFFF"></path>
            <path id="Path-6-decoration-1" d="M479.081567,129 L489.881567,126 L479.081567,123" stroke="#FFFFFF"></path>
            <g id="Page-1" transform="translate(353.000000, 84.000000)" stroke="#45416C">
                <path d="M63.4516,41.4516 C63.4516,53.6016 53.6016,63.4516 41.4516,63.4516 C29.3016,63.4516 19.4516,53.6016 19.4516,41.4516 C19.4516,29.3016 29.3016,19.4516 41.4516,19.4516 C53.6016,19.4516 63.4516,29.3016 63.4516,41.4516 Z" id="Stroke-1"></path>
                <path d="M46.3193,9.2954 C44.7763,12.2284 41.1483,13.3544 38.2153,11.8114 C35.2823,10.2684 34.1563,6.6394 35.6993,3.7074 C37.2423,0.7744 40.8713,-0.3516 43.8033,1.1914 C46.7363,2.7344 47.8623,6.3624 46.3193,9.2954 Z" id="Stroke-3"></path>
                <path d="M29.5888,11.1699 C29.7188,14.4809 27.1398,17.2709 23.8288,17.3999 C20.5178,17.5299 17.7278,14.9509 17.5978,11.6399 C17.4678,8.3289 20.0468,5.5399 23.3588,5.4099 C26.6698,5.2799 29.4588,7.8579 29.5888,11.1699 Z" id="Stroke-5"></path>
                <path d="M16.037,21.1582 C17.805,23.9612 16.966,27.6662 14.164,29.4342 C11.361,31.2022 7.656,30.3632 5.888,27.5612 C4.12,24.7582 4.958,21.0532 7.761,19.2842 C10.564,17.5172 14.269,18.3552 16.037,21.1582 Z" id="Stroke-7"></path>
                <path d="M9.2953,36.5839 C12.2283,38.1269 13.3543,41.7549 11.8113,44.6879 C10.2683,47.6209 6.6393,48.7469 3.7073,47.2039 C0.7743,45.6609 -0.3517,42.0319 1.1913,39.0999 C2.7343,36.1669 6.3623,35.0409 9.2953,36.5839 Z" id="Stroke-9"></path>
                <path d="M11.1698,53.3144 C14.4808,53.1844 17.2708,55.7634 17.3998,59.0744 C17.5298,62.3854 14.9508,65.1754 11.6398,65.3054 C8.3288,65.4354 5.5398,62.8564 5.4098,59.5444 C5.2798,56.2334 7.8578,53.4444 11.1698,53.3144 Z" id="Stroke-11"></path>
                <path d="M21.1581,66.8662 C23.9611,65.0982 27.6661,65.9372 29.4341,68.7392 C31.2021,71.5422 30.3631,75.2472 27.5611,77.0152 C24.7581,78.7832 21.0531,77.9452 19.2841,75.1422 C17.5171,72.3392 18.3551,68.6342 21.1581,66.8662 Z" id="Stroke-13"></path>
                <path d="M36.5839,73.6079 C38.1269,70.6749 41.7549,69.5489 44.6879,71.0919 C47.6209,72.6349 48.7469,76.2639 47.2039,79.1959 C45.6609,82.1289 42.0319,83.2549 39.0999,81.7119 C36.1669,80.1689 35.0409,76.5409 36.5839,73.6079 Z" id="Stroke-15"></path>
                <path d="M53.3144,71.7334 C53.1844,68.4224 55.7634,65.6324 59.0744,65.5034 C62.3854,65.3734 65.1754,67.9524 65.3054,71.2634 C65.4354,74.5744 62.8564,77.3634 59.5444,77.4934 C56.2334,77.6234 53.4444,75.0454 53.3144,71.7334 Z" id="Stroke-17"></path>
                <path d="M66.8661,61.7451 C65.0981,58.9421 65.9371,55.2371 68.7391,53.4691 C71.5421,51.7011 75.2471,52.5401 77.0151,55.3421 C78.7831,58.1451 77.9451,61.8501 75.1421,63.6191 C72.3391,65.3861 68.6341,64.5481 66.8661,61.7451 Z" id="Stroke-19"></path>
                <path d="M73.6078,46.3193 C70.6748,44.7763 69.5488,41.1483 71.0918,38.2153 C72.6348,35.2823 76.2638,34.1563 79.1958,35.6993 C82.1288,37.2423 83.2548,40.8713 81.7118,43.8033 C80.1688,46.7363 76.5408,47.8623 73.6078,46.3193 Z" id="Stroke-21"></path>
                <path d="M71.7333,29.5888 C68.4223,29.7188 65.6323,27.1398 65.5033,23.8288 C65.3733,20.5178 67.9523,17.7278 71.2633,17.5978 C74.5743,17.4678 77.3633,20.0468 77.4933,23.3588 C77.6233,26.6698 75.0453,29.4588 71.7333,29.5888 Z" id="Stroke-23"></path>
                <path d="M61.745,16.0371 C58.942,17.8051 55.237,16.9661 53.469,14.1641 C51.701,11.3611 52.54,7.6561 55.342,5.8881 C58.145,4.1201 61.85,4.9581 63.619,7.7611 C65.386,10.5641 64.548,14.2691 61.745,16.0371 Z" id="Stroke-25"></path>
            </g>
        </g>
    </g>
</svg>