<?xml version="1.0" encoding="UTF-8"?>
<svg width="26px" height="960px" viewBox="0 0 26 960" version="1.1" xmlns="http://www.w3.org/2000/svg" xmlns:xlink="http://www.w3.org/1999/xlink">
    <!-- Generator: sketchtool 48.2 (47327) - http://www.bohemiancoding.com/sketch -->
    <title>E49F83DC-03AE-41C7-BCE7-A4FBAB638EC8</title>
    <desc>Created with sketchtool.</desc>
    <defs></defs>
    <g id="token-head-slice" stroke="none" stroke-width="1" fill="none" fill-rule="evenodd" transform="translate(-707.000000, -10612.000000)">
        <g id="roadmap-strape" transform="translate(707.000000, 10612.000000)">
            <path d="M13,14 L13,947" id="Path-2-Copy-11" stroke="#FD9801" stroke-dasharray="1,6"></path>
            <g id="Group-10-Copy-6">
                <circle id="Oval-10-Copy" fill="#1D1048" cx="13" cy="13" r="13"></circle>
                <circle id="Oval-2-Copy" fill="#FFFFFF" cx="13.5" cy="13.5" r="3.5"></circle>
            </g>
            <g id="Group-10-Copy-10" transform="translate(0.000000, 75.000000)">
                <circle id="Oval-10-Copy" fill="#1D1048" cx="13" cy="13" r="13"></circle>
                <circle id="Oval-2-Copy" fill="#FFFFFF" cx="13.5" cy="13.5" r="3.5"></circle>
            </g>
            <g id="Group-10-Copy-11" transform="translate(0.000000, 151.000000)">
                <circle id="Oval-10-Copy" fill="#1D1048" cx="13" cy="13" r="13"></circle>
                <circle id="Oval-2-Copy" fill="#FFFFFF" cx="13.5" cy="13.5" r="3.5"></circle>
            </g>
            <g id="Group-10-Copy-13" transform="translate(0.000000, 302.000000)">
                <circle id="Oval-10-Copy" fill="#1D1048" cx="13" cy="13" r="13"></circle>
                <circle id="Oval-2-Copy" fill="#FFFFFF" cx="13.5" cy="13.5" r="3.5"></circle>
            </g>
            <g id="Group-10-Copy-15" transform="translate(0.000000, 456.000000)">
                <circle id="Oval-10-Copy" fill="#1D1048" cx="13" cy="13" r="13"></circle>
                <circle id="Oval-2-Copy" fill="#FFFFFF" cx="13.5" cy="13.5" r="3.5"></circle>
            </g>
            <g id="Group-10-Copy-16" transform="translate(0.000000, 531.000000)">
                <circle id="Oval-10-Copy" fill="#1D1048" cx="13" cy="13" r="13"></circle>
                <circle id="Oval-2-Copy" fill="#FFFFFF" cx="13.5" cy="13.5" r="3.5"></circle>
            </g>
            <g id="Group-10-Copy-17" transform="translate(0.000000, 631.000000)">
                <circle id="Oval-10-Copy" fill="#1D1048" cx="13" cy="13" r="13"></circle>
                <circle id="Oval-2-Copy" fill="#FFFFFF" cx="13.5" cy="13.5" r="3.5"></circle>
            </g>
            <g id="Group-10-Copy-18" transform="translate(0.000000, 706.000000)">
                <circle id="Oval-10-Copy" fill="#1D1048" cx="13" cy="13" r="13"></circle>
                <circle id="Oval-2-Copy" fill="#FFFFFF" cx="13.5" cy="13.5" r="3.5"></circle>
            </g>
            <g id="Group-10-Copy-19" transform="translate(0.000000, 782.000000)">
                <circle id="Oval-10-Copy" fill="#1D1048" cx="13" cy="13" r="13"></circle>
                <circle id="Oval-2-Copy" fill="#FFFFFF" cx="13.5" cy="13.5" r="3.5"></circle>
            </g>
            <g id="Group-10-Copy-20" transform="translate(0.000000, 858.000000)">
                <circle id="Oval-10-Copy" fill="#1D1048" cx="13" cy="13" r="13"></circle>
                <circle id="Oval-2-Copy" fill="#FFFFFF" cx="13.5" cy="13.5" r="3.5"></circle>
            </g>
            <g id="Group-10-Copy-21" transform="translate(0.000000, 934.000000)">
                <circle id="Oval-10-Copy" fill="#1D1048" cx="13" cy="13" r="13"></circle>
                <circle id="Oval-2-Copy" fill="#FFFFFF" cx="13.5" cy="13.5" r="3.5"></circle>
            </g>
            <g id="Group-10-Copy-14" transform="translate(0.000000, 379.000000)">
                <circle id="Oval-10-Copy" fill="#1D1048" cx="13" cy="13" r="13"></circle>
                <circle id="Oval-2-Copy" fill="#FFFFFF" cx="13.5" cy="13.5" r="3.5"></circle>
            </g>
            <g id="Group-10-Copy-12" transform="translate(0.000000, 227.000000)">
                <circle id="Oval-10-Copy" fill="#1D1048" cx="13" cy="13" r="13"></circle>
                <circle id="Oval-2-Copy" fill="#FFFFFF" cx="13.5" cy="13.5" r="3.5"></circle>
            </g>
        </g>
    </g>
</svg>