<?xml version="1.0" encoding="UTF-8"?>
<svg width="688px" height="280px" viewBox="0 0 688 280" version="1.1" xmlns="http://www.w3.org/2000/svg" xmlns:xlink="http://www.w3.org/1999/xlink">
    <!-- Generator: sketchtool 48.2 (47327) - http://www.bohemiancoding.com/sketch -->
    <title>CB044537-E126-4103-8FCE-089A7D953765</title>
    <desc>Created with sketchtool.</desc>
    <defs></defs>
    <g id="token-head-slice" stroke="none" stroke-width="1" fill="none" fill-rule="evenodd" transform="translate(-377.000000, -2182.000000)">
        <g id="ti-de-scheme" transform="translate(377.000000, 2182.000000)">
            <g id="Page-1">
                <path d="M136,275.5 C61.285,275.5 0.5,214.715 0.5,140 C0.5,65.285 61.285,4.5 136,4.5 C210.715,4.5 271.5,65.285 271.5,140 C271.5,214.715 210.715,275.5 136,275.5" id="Fill-1" stroke="#45416C"></path>
                <circle id="Oval-24-Copy-5" fill="#FFFFFF" cx="136.5" cy="4.5" r="4.5"></circle>
                <path d="M136,254.5 C72.865,254.5 21.5,203.136 21.5,140 C21.5,76.865 72.865,25.5 136,25.5 C199.135,25.5 250.5,76.865 250.5,140 C250.5,203.136 199.135,254.5 136,254.5" id="Fill-5" stroke="#45416C"></path>
                <path d="M136,233.5 C84.444,233.5 42.5,191.556 42.5,140 C42.5,88.444 84.444,46.5 136,46.5 C187.556,46.5 229.5,88.444 229.5,140 C229.5,191.556 187.556,233.5 136,233.5" id="Fill-9" stroke="#45416C"></path>
                <path d="M136,212.5 C96.023,212.5 63.5,179.977 63.5,140 C63.5,100.023 96.023,67.5 136,67.5 C175.977,67.5 208.5,100.023 208.5,140 C208.5,179.977 175.977,212.5 136,212.5" id="Fill-13" stroke="#45416C"></path>
                <path d="M136,191.5 C107.603,191.5 84.5,168.396 84.5,140 C84.5,111.603 107.603,88.5 136,88.5 C164.397,88.5 187.5,111.603 187.5,140 C187.5,168.396 164.397,191.5 136,191.5" id="Fill-17" stroke="#45416C"></path>
            </g>
            <circle id="Oval-23" fill="#FD9801" cx="136.5" cy="140.5" r="34.5"></circle>
            <path d="M133.013,147.318 L133.013,134.954 L128.459,134.954 C128.004331,134.954 127.777,134.726669 127.777,134.272 C127.777,134.066666 127.835666,133.901667 127.953,133.777 C128.070334,133.652333 128.238999,133.59 128.459,133.59 L138.931,133.59 C139.136334,133.59 139.301333,133.652333 139.426,133.777 C139.550667,133.901667 139.613,134.066666 139.613,134.272 C139.613,134.492001 139.550667,134.660666 139.426,134.778 C139.301333,134.895334 139.136334,134.954 138.931,134.954 L134.377,134.954 L134.377,147.318 C134.377,147.538001 134.314667,147.706666 134.19,147.824 C134.065333,147.941334 133.900334,148 133.695,148 C133.240331,148 133.013,147.772669 133.013,147.318 Z M142.209,147.318 L142.209,138.056 C142.209,137.601331 142.436331,137.374 142.891,137.374 C143.345669,137.374 143.573,137.601331 143.573,138.056 L143.573,147.318 C143.573,147.772669 143.345669,148 142.891,148 C142.436331,148 142.209,147.772669 142.209,147.318 Z M141.769,134.58 L141.769,134.008 C141.769,133.743999 141.838666,133.542334 141.978,133.403 C142.117334,133.263666 142.326332,133.194 142.605,133.194 L143.133,133.194 C143.397001,133.194 143.598666,133.267333 143.738,133.414 C143.877334,133.560667 143.947,133.758665 143.947,134.008 L143.947,134.58 C143.947,134.858668 143.877334,135.071333 143.738,135.218 C143.598666,135.364667 143.397001,135.438 143.133,135.438 L142.605,135.438 C142.047664,135.438 141.769,135.152003 141.769,134.58 Z" id="Ti" fill="#FFFFFF"></path>
            <circle id="Oval-24" fill="#FFFFFF" cx="136.5" cy="190.5" r="4.5"></circle>
            <circle id="Oval-24-Copy" fill="#FFFFFF" cx="136.5" cy="212.5" r="4.5"></circle>
            <circle id="Oval-24-Copy-6" fill="#FFFFFF" cx="136.5" cy="25.5" r="4.5"></circle>
            <g id="Group" transform="translate(22.000000, 51.000000)" fill="#FFFFFF">
                <circle id="Oval-24-Copy-10" cx="36.5" cy="4.5" r="4.5"></circle>
                <circle id="Oval-24-Copy-15" cx="36.5" cy="173.5" r="4.5"></circle>
                <circle id="Oval-24-Copy-11" cx="51.5" cy="18.5" r="4.5"></circle>
                <circle id="Oval-24-Copy-16" cx="51.5" cy="158.5" r="4.5"></circle>
                <circle id="Oval-24-Copy-12" cx="20.5" cy="85.5" r="4.5"></circle>
                <circle id="Oval-24-Copy-13" cx="5.5" cy="50.5" r="4.5"></circle>
                <circle id="Oval-24-Copy-14" cx="4.5" cy="120.5" r="4.5"></circle>
            </g>
            <g id="Group-Copy" transform="translate(222.000000, 140.000000) scale(-1, 1) translate(-222.000000, -140.000000) translate(194.000000, 51.000000)" fill="#FFFFFF">
                <circle id="Oval-24-Copy-10" cx="36.5" cy="4.5" r="4.5"></circle>
                <circle id="Oval-24-Copy-15" cx="36.5" cy="173.5" r="4.5"></circle>
                <circle id="Oval-24-Copy-11" cx="51.5" cy="18.5" r="4.5"></circle>
                <circle id="Oval-24-Copy-16" cx="51.5" cy="158.5" r="4.5"></circle>
                <circle id="Oval-24-Copy-12" cx="20.5" cy="85.5" r="4.5"></circle>
                <circle id="Oval-24-Copy-13" cx="5.5" cy="50.5" r="4.5"></circle>
                <circle id="Oval-24-Copy-14" cx="4.5" cy="120.5" r="4.5"></circle>
            </g>
            <circle id="Oval-24-Copy-2" fill="#FFFFFF" cx="136.5" cy="233.5" r="4.5"></circle>
            <circle id="Oval-24-Copy-7" fill="#FFFFFF" cx="136.5" cy="46.5" r="4.5"></circle>
            <circle id="Oval-24-Copy-3" fill="#FFFFFF" cx="136.5" cy="254.5" r="4.5"></circle>
            <circle id="Oval-24-Copy-8" fill="#FFFFFF" cx="136.5" cy="67.5" r="4.5"></circle>
            <circle id="Oval-24-Copy-4" fill="#FFFFFF" cx="136.5" cy="275.5" r="4.5"></circle>
            <circle id="Oval-24-Copy-9" fill="#FFFFFF" cx="136.5" cy="88.5" r="4.5"></circle>
            <path d="M572.5,255 C509.365,255 458,203.636 458,140.5 C458,77.365 509.365,26 572.5,26 C635.635,26 687,77.365 687,140.5 C687,203.636 635.635,255 572.5,255" id="Fill-5" stroke="" stroke-width="2" transform="translate(572.500000, 140.500000) scale(-1, 1) translate(-572.500000, -140.500000) "></path>
            <circle id="Oval-25" fill="#57E7FD" cx="575" cy="26" r="13"></circle>
            <path d="M572.705,26.715 L572.705,27.075 C572.705,27.5150022 572.754999,27.8524988 572.855,28.0875 C572.955,28.3225012 573.124999,28.4899995 573.365,28.59 C573.605001,28.6900005 573.944998,28.74 574.385,28.74 L575.615,28.74 C576.125003,28.74 576.502499,28.6925005 576.7475,28.5975 C576.992501,28.5024995 577.155,28.3350012 577.235,28.095 C577.295,27.894999 577.374999,27.7475005 577.475,27.6525 C577.575,27.5574995 577.719999,27.51 577.91,27.51 C578.100001,27.51 578.247499,27.5524996 578.3525,27.6375 C578.457501,27.7225004 578.51,27.8449992 578.51,28.005 C578.51,28.0750004 578.505,28.1249999 578.495,28.155 C578.274999,29.3850062 577.315008,30 575.615,30 L574.385,30 C573.384995,30 572.645002,29.7600024 572.165,29.28 C571.684998,28.7999976 571.445,28.065005 571.445,27.075 L571.445,25.335 C571.445,24.324995 571.684998,23.5800024 572.165,23.1 C572.645002,22.6199976 573.384995,22.3849999 574.385,22.395 L575.615,22.395 C576.615005,22.395 577.354998,22.6349976 577.835,23.115 C578.315002,23.5950024 578.555,24.334995 578.555,25.335 L578.555,26.085 C578.555,26.285001 578.500001,26.4399994 578.39,26.55 C578.279999,26.6600005 578.125001,26.715 577.925,26.715 L572.705,26.715 Z M572.705,25.455 L577.295,25.455 L577.295,25.335 C577.295,24.8949978 577.245,24.5550012 577.145,24.315 C577.044999,24.0749988 576.875001,23.9050005 576.635,23.805 C576.394999,23.7049995 576.055002,23.655 575.615,23.655 L574.385,23.655 C573.944998,23.645 573.605001,23.6899995 573.365,23.79 C573.124999,23.8900005 572.955,24.0599988 572.855,24.3 C572.754999,24.5400012 572.705,24.8849977 572.705,25.335 L572.705,25.455 Z" id="e" fill="#FFFFFF"></path>
            <g id="Group-3" transform="translate(515.000000, 109.000000)">
                <circle id="Oval-26" fill="#FF1842" style="mix-blend-mode: screen;" cx="32" cy="32" r="32"></circle>
                <circle id="Oval-26-Copy" fill="#45416C" style="mix-blend-mode: screen;" cx="83" cy="32" r="32"></circle>
                <path d="M36.6125,26.275 C37.3291703,26.9916702 37.6875,28.1333255 37.6875,29.7 L37.6875,32.5 C37.6875,34.0666745 37.3291703,35.2083298 36.6125,35.925 C35.8958298,36.6416703 34.7541745,37 33.1875,37 L27.9375,37 L27.9375,41.35 C27.9375,41.7833355 27.7208355,42 27.2875,42 C26.8541645,42 26.6375,41.7833355 26.6375,41.35 L26.6375,25.85 C26.6375,25.4166645 26.8541645,25.2 27.2875,25.2 C27.7208355,25.2 27.9375,25.4166645 27.9375,25.85 L27.9375,26.95 C28.7208373,25.7833275 30.1541562,25.2 32.2375,25.2 L33.1875,25.2 C34.7541745,25.2 35.8958298,25.5583297 36.6125,26.275 Z M36.3875,29.7 C36.3875,28.5166607 36.154169,27.6875024 35.6875,27.2125 C35.220831,26.7374976 34.387506,26.5 33.1875,26.5 L32.2375,26.5 C30.9208267,26.5 29.895837,26.7083313 29.1625,27.125 C28.429163,27.5416687 28.029167,28.1666625 27.9625,29 C27.9625,29.0833338 27.9541667,29.1416665 27.9375,29.175 L27.9375,35.7 L33.1875,35.7 C34.387506,35.7 35.220831,35.4625024 35.6875,34.9875 C36.154169,34.5124976 36.3875,33.6833393 36.3875,32.5 L36.3875,29.7 Z" id="p" fill="#FFFFFF"></path>
                <path d="M87.4375,26.2875 C88.1541702,27.0125036 88.5125,28.1499923 88.5125,29.7 L88.5125,36.35 C88.5125,36.7833355 88.2958355,37 87.8625,37 C87.4291645,37 87.2125,36.7833355 87.2125,36.35 L87.2125,29.7 C87.2125,28.499994 86.979169,27.666669 86.5125,27.2 C86.045831,26.733331 85.212506,26.5 84.0125,26.5 L83.3125,26.5 C81.9958267,26.5 80.970837,26.7083313 80.2375,27.125 C79.504163,27.5416687 79.104167,28.1583293 79.0375,28.975 C79.0375,29.0583337 79.0291668,29.1166665 79.0125,29.15 L79.0125,36.35 C79.0125,36.7833355 78.7958355,37 78.3625,37 C77.9291645,37 77.7125,36.7833355 77.7125,36.35 L77.7125,25.85 C77.7125,25.4166645 77.9291645,25.2 78.3625,25.2 C78.7958355,25.2 79.0125,25.4166645 79.0125,25.85 L79.0125,27.05 C79.812504,25.8166605 81.245823,25.2 83.3125,25.2 L84.0125,25.2 C85.5791745,25.2 86.7208298,25.5624964 87.4375,26.2875 Z" id="n" fill="#FFFFFF"></path>
            </g>
            <g id="Group-4" transform="translate(345.000000, 120.000000)" stroke="#FFFFFF">
                <path d="M40,0 L0,40" id="Path-4"></path>
                <path d="M40,41 L0,1" id="Path-4-Copy"></path>
            </g>
        </g>
    </g>
</svg>