<?xml version="1.0" encoding="UTF-8"?>
<svg width="122px" height="122px" viewBox="0 0 122 122" version="1.1" xmlns="http://www.w3.org/2000/svg" xmlns:xlink="http://www.w3.org/1999/xlink">
    <!-- Generator: sketchtool 48.2 (47327) - http://www.bohemiancoding.com/sketch -->
    <title>CB74F4A6-AF18-4069-AD73-A65BD8D0B43E</title>
    <desc>Created with sketchtool.</desc>
    <defs></defs>
    <g id="token-head-slice" stroke="none" stroke-width="1" fill="none" fill-rule="evenodd" transform="translate(-659.000000, -11876.000000)">
        <g id="unknown-icon" transform="translate(660.000000, 11877.000000)">
            <circle id="Oval-15-Copy-2" stroke="#FD9801" fill="#1D0F48" cx="60" cy="60" r="60"></circle>
            <g id="Page-1-Copy-4" transform="translate(46.000000, 46.000000)" stroke="#57E7FD">
                <path d="M24.8741,14 C24.8741,20.075 19.9491,25 13.8741,25 C7.7991,25 2.8741,20.075 2.8741,14 C2.8741,7.925 7.7991,3 13.8741,3 C19.9491,3 24.8741,7.925 24.8741,14 Z" id="Stroke-1"></path>
                <path d="M10.0914,17.1797 C10.7874,18.5557 12.2184,19.4997 13.8744,19.4997 C15.5294,19.4997 16.9604,18.5557 17.6564,17.1797" id="Stroke-3"></path>
                <path d="M11.3741,11.5 C11.3741,12.329 10.7031,13 9.8741,13 C9.0451,13 8.3741,12.329 8.3741,11.5 C8.3741,10.671 9.0451,10 9.8741,10 C10.7031,10 11.3741,10.671 11.3741,11.5 Z" id="Stroke-5"></path>
                <path d="M19.3741,11.5 C19.3741,12.329 18.7031,13 17.8741,13 C17.0451,13 16.3741,12.329 16.3741,11.5 C16.3741,10.671 17.0451,10 17.8741,10 C18.7031,10 19.3741,10.671 19.3741,11.5 Z" id="Stroke-7"></path>
                <path d="M13.8741,3 L13.8741,0" id="Stroke-9"></path>
                <path d="M10.1119,3.6636 L9.0859,0.8446" id="Stroke-11"></path>
                <path d="M6.8033,5.5737 L4.8753,3.2757" id="Stroke-13"></path>
                <path d="M4.3478,8.5 L1.7498,7" id="Stroke-15"></path>
                <path d="M3.0411,12.0898 L0.0871,11.5688" id="Stroke-17"></path>
                <path d="M3.0411,15.9102 L0.0871,16.4312" id="Stroke-19"></path>
                <path d="M4.3478,19.5 L1.7498,21" id="Stroke-21"></path>
                <path d="M6.8033,22.4263 L4.8753,24.7243" id="Stroke-23"></path>
                <path d="M10.1119,24.3364 L9.0859,27.1554" id="Stroke-25"></path>
                <path d="M13.8741,25 L13.8741,28" id="Stroke-27"></path>
                <path d="M17.6363,24.3364 L18.6623,27.1554" id="Stroke-29"></path>
                <path d="M20.9449,22.4263 L22.8729,24.7243" id="Stroke-31"></path>
                <path d="M23.4005,19.5 L25.9985,21" id="Stroke-33"></path>
                <path d="M24.7071,15.9102 L27.6611,16.4312" id="Stroke-35"></path>
                <path d="M24.7071,12.0898 L27.6611,11.5688" id="Stroke-37"></path>
                <path d="M23.4005,8.5 L25.9985,7" id="Stroke-39"></path>
                <path d="M20.9449,5.5737 L22.8729,3.2757" id="Stroke-41"></path>
                <path d="M17.6363,3.6636 L18.6623,0.8446" id="Stroke-43"></path>
            </g>
        </g>
    </g>
</svg>