<?xml version="1.0" encoding="UTF-8"?>
<svg width="33px" height="29px" viewBox="0 0 33 29" version="1.1" xmlns="http://www.w3.org/2000/svg" xmlns:xlink="http://www.w3.org/1999/xlink">
    <!-- Generator: sketchtool 48.2 (47327) - http://www.bohemiancoding.com/sketch -->
    <title>D99024F7-3718-4BBE-8476-D751E96C09DD</title>
    <desc>Created with sketchtool.</desc>
    <defs></defs>
    <g id="token-head-slice" stroke="none" stroke-width="1" fill="none" fill-rule="evenodd" transform="translate(-225.000000, -3671.000000)">
        <g id="wind-icon" transform="translate(226.000000, 3671.000000)" stroke="#FD9801">
            <path d="M17.6253,18.502 C18.3663,17.457 21.9893,18.757 25.7183,21.402 C29.4473,24.049 31.8693,27.04 31.1283,28.085 C30.3873,29.129 26.7643,27.83 23.0353,25.184 C19.3073,22.537 16.8843,19.546 17.6253,18.502 Z" id="Stroke-1"></path>
            <path d="M16.0677,0.5 C17.3477,0.5 18.3857,4.207 18.3857,8.779 C18.3857,13.352 17.3477,17.058 16.0677,17.058 C14.7877,17.058 13.7497,13.352 13.7497,8.779 C13.7497,4.207 14.7877,0.5 16.0677,0.5 Z" id="Stroke-3"></path>
            <path d="M14.1361,18.502 C13.3951,17.457 9.7721,18.757 6.0431,21.402 C2.3151,24.049 -0.1079,27.04 0.6331,28.085 C1.3741,29.129 4.9971,27.83 8.7271,25.184 C12.4551,22.537 14.8771,19.546 14.1361,18.502 Z" id="Stroke-5"></path>
            <path d="M20.2269,18.2871 C20.2269,20.5841 18.3649,22.4461 16.0679,22.4461 C13.7709,22.4461 11.9089,20.5841 11.9089,18.2871 C11.9089,15.9901 13.7709,14.1281 16.0679,14.1281 C18.3649,14.1281 20.2269,15.9901 20.2269,18.2871 Z" id="Stroke-7"></path>
        </g>
    </g>
</svg>