<?xml version="1.0" encoding="UTF-8"?>
<svg width="43px" height="48px" viewBox="0 0 43 48" version="1.1" xmlns="http://www.w3.org/2000/svg" xmlns:xlink="http://www.w3.org/1999/xlink">
    <!-- Generator: sketchtool 48.2 (47327) - http://www.bohemiancoding.com/sketch -->
    <title>6C2D03A0-12C6-4D62-BB50-729B75E4D0D1</title>
    <desc>Created with sketchtool.</desc>
    <defs></defs>
    <g id="token-head-slice" stroke="none" stroke-width="1" fill="none" fill-rule="evenodd" transform="translate(-345.000000, -6383.000000)">
        <g id="x-icon" transform="translate(345.000000, 6383.000000)">
            <path d="M31.071,40.6553 C21.873,45.9663 10.111,42.8143 4.8,33.6163 C-0.511,24.4173 2.641,12.6553 11.84,7.3443 C21.038,2.0343 32.8,5.1853 38.11,14.3843 C43.421,23.5833 40.269,35.3443 31.071,40.6553 Z" id="Stroke-21" stroke="#57E7FD"></path>
            <path d="M25.9552,5 C25.9552,7.485 23.9402,9.5 21.4552,9.5 C18.9702,9.5 16.9552,7.485 16.9552,5 C16.9552,2.515 18.9702,0.5 21.4552,0.5 C23.9402,0.5 25.9552,2.515 25.9552,5 Z" id="Stroke-3" stroke="#FD9801"></path>
            <path d="M7.2506,10.6025 C9.4026,11.8455 10.1406,14.5975 8.8976,16.7495 C7.6556,18.9025 4.9026,19.6395 2.7506,18.3975 C0.5986,17.1545 -0.1394,14.4025 1.1036,12.2495 C2.3466,10.0975 5.0986,9.3605 7.2506,10.6025 Z" id="Stroke-7" stroke="#FD9801"></path>
            <path d="M2.7506,29.6025 C4.9026,28.3605 7.6556,29.0975 8.8976,31.2495 C10.1406,33.4025 9.4026,36.1545 7.2506,37.3975 C5.0986,38.6395 2.3466,37.9025 1.1036,35.7495 C-0.1394,33.5975 0.5986,30.8455 2.7506,29.6025 Z" id="Stroke-11" stroke="#FD9801"></path>
            <path d="M16.9552,43 C16.9552,40.515 18.9702,38.5 21.4552,38.5 C23.9402,38.5 25.9552,40.515 25.9552,43 C25.9552,45.485 23.9402,47.5 21.4552,47.5 C18.9702,47.5 16.9552,45.485 16.9552,43 Z" id="Stroke-15" stroke="#FD9801"></path>
            <path d="M35.6598,37.3975 C33.5078,36.1545 32.7698,33.4025 34.0128,31.2505 C35.2548,29.0975 38.0078,28.3605 40.1598,29.6025 C42.3118,30.8455 43.0498,33.5975 41.8068,35.7505 C40.5638,37.9025 37.8118,38.6395 35.6598,37.3975 Z" id="Stroke-19" stroke="#FD9801"></path>
            <path d="M40.1598,18.3975 C38.0078,19.6395 35.2548,18.9025 34.0128,16.7505 C32.7698,14.5975 33.5078,11.8455 35.6598,10.6025 C37.8118,9.3605 40.5638,10.0975 41.8068,12.2505 C43.0498,14.4025 42.3118,17.1545 40.1598,18.3975 Z" id="Stroke-23" stroke="#FD9801"></path>
        </g>
    </g>
</svg>